G04 #@! TF.GenerationSoftware,KiCad,Pcbnew,5.99.0-unknown-5975524826~131~ubuntu21.04.1*
G04 #@! TF.CreationDate,2021-09-24T15:40:39+02:00*
G04 #@! TF.ProjectId,e3pb,65337062-2e6b-4696-9361-645f70636258,rev?*
G04 #@! TF.SameCoordinates,Original*
G04 #@! TF.FileFunction,Copper,L1,Top*
G04 #@! TF.FilePolarity,Positive*
%FSLAX46Y46*%
G04 Gerber Fmt 4.6, Leading zero omitted, Abs format (unit mm)*
G04 Created by KiCad (PCBNEW 5.99.0-unknown-5975524826~131~ubuntu21.04.1) date 2021-09-24 15:40:39*
%MOMM*%
%LPD*%
G01*
G04 APERTURE LIST*
G04 Aperture macros list*
%AMRoundRect*
0 Rectangle with rounded corners*
0 $1 Rounding radius*
0 $2 $3 $4 $5 $6 $7 $8 $9 X,Y pos of 4 corners*
0 Add a 4 corners polygon primitive as box body*
4,1,4,$2,$3,$4,$5,$6,$7,$8,$9,$2,$3,0*
0 Add four circle primitives for the rounded corners*
1,1,$1+$1,$2,$3*
1,1,$1+$1,$4,$5*
1,1,$1+$1,$6,$7*
1,1,$1+$1,$8,$9*
0 Add four rect primitives between the rounded corners*
20,1,$1+$1,$2,$3,$4,$5,0*
20,1,$1+$1,$4,$5,$6,$7,0*
20,1,$1+$1,$6,$7,$8,$9,0*
20,1,$1+$1,$8,$9,$2,$3,0*%
G04 Aperture macros list end*
G04 #@! TA.AperFunction,ComponentPad*
%ADD10RoundRect,0.250000X-0.600000X-0.750000X0.600000X-0.750000X0.600000X0.750000X-0.600000X0.750000X0*%
G04 #@! TD*
G04 #@! TA.AperFunction,ComponentPad*
%ADD11O,1.700000X2.000000*%
G04 #@! TD*
G04 #@! TA.AperFunction,SMDPad,CuDef*
%ADD12RoundRect,0.237500X0.250000X0.237500X-0.250000X0.237500X-0.250000X-0.237500X0.250000X-0.237500X0*%
G04 #@! TD*
G04 #@! TA.AperFunction,ComponentPad*
%ADD13C,1.400000*%
G04 #@! TD*
G04 #@! TA.AperFunction,ComponentPad*
%ADD14R,3.500000X3.500000*%
G04 #@! TD*
G04 #@! TA.AperFunction,ComponentPad*
%ADD15C,3.500000*%
G04 #@! TD*
G04 #@! TA.AperFunction,Conductor*
%ADD16C,0.200000*%
G04 #@! TD*
G04 #@! TA.AperFunction,Conductor*
%ADD17C,3.000000*%
G04 #@! TD*
G04 APERTURE END LIST*
D10*
X-7550000Y-123950000D03*
D11*
X-5050000Y-123950000D03*
D12*
X912500Y0D03*
X-912500Y0D03*
D13*
X10600000Y-130050000D03*
X-400000Y-130050000D03*
D14*
X2600000Y-120050000D03*
D15*
X7600000Y-120050000D03*
D16*
X-912500Y0D02*
X-200000Y-712500D01*
X-200000Y-712500D02*
X-199999Y-107529289D01*
X4900000Y-112629288D02*
X4900000Y-123050000D01*
X-199999Y-107529289D02*
X4900000Y-112629288D01*
X1000000Y-124500000D02*
X-2700000Y-120800000D01*
X-2700000Y-120800000D02*
X-5332844Y-120800000D01*
X-5332844Y-120800000D02*
X-6549520Y-122016676D01*
X4900000Y-123050000D02*
X3450000Y-124500000D01*
X3450000Y-124500000D02*
X1000000Y-124500000D01*
X-6549520Y-122016676D02*
X-6549520Y-122799520D01*
X-6549520Y-122799520D02*
X-7550000Y-123800000D01*
X-7550000Y-123800000D02*
X-7550000Y-123950000D01*
X-5050000Y-123950000D02*
X-6150000Y-122850000D01*
X-6150000Y-122850000D02*
X-6150000Y-122182162D01*
X-6150000Y-122182162D02*
X-5167358Y-121199520D01*
X-5167358Y-121199520D02*
X-2865486Y-121199520D01*
X-2865486Y-121199520D02*
X834514Y-124899520D01*
X834514Y-124899520D02*
X3615486Y-124899520D01*
X3615486Y-124899520D02*
X5299520Y-123215486D01*
X5299520Y-123215486D02*
X5299520Y-112463802D01*
X5299520Y-112463802D02*
X199520Y-107363802D01*
X199520Y-712980D02*
X912500Y0D01*
X200000Y-107363802D02*
X199520Y-712980D01*
D17*
X7600000Y-114900000D02*
X7600000Y-120050000D01*
X2600000Y-115100000D02*
X2600000Y-120050000D01*
X-2750000Y26250000D02*
X-2750000Y23750000D01*
X-4000000Y27500000D02*
X-2750000Y26250000D01*
X-2750000Y23750000D02*
X-4000000Y22500000D01*
X-4000000Y22500000D02*
X-111250000Y22500000D01*
X-111250000Y27500000D02*
X-4000000Y27500000D01*
X-112500000Y28750000D02*
X-111250000Y27500000D01*
X-2750000Y33750000D02*
X-4000000Y32500000D01*
X-2750000Y36250000D02*
X-2750000Y33750000D01*
X5250000Y-37500000D02*
X4000000Y-36250000D01*
X-4000000Y37500000D02*
X-2750000Y36250000D01*
X-112500000Y38750000D02*
X-111250000Y37500000D01*
X-111250000Y37500000D02*
X-4000000Y37500000D01*
X-112500000Y41250000D02*
X-112500000Y38750000D01*
X111250000Y-37500000D02*
X5250000Y-37500000D01*
X-111250000Y42500000D02*
X-112500000Y41250000D01*
X112500000Y-38750000D02*
X111250000Y-37500000D01*
X-4000000Y42500000D02*
X-111250000Y42500000D01*
X111250000Y-102499999D02*
X112500000Y-101249999D01*
X5250000Y-102500000D02*
X111250000Y-102499999D01*
X112500000Y-41249999D02*
X112500000Y-38750000D01*
X-111250000Y47500000D02*
X-4000000Y47500000D01*
X111250000Y-42499999D02*
X112500000Y-41249999D01*
X-4000000Y47500000D02*
X-2750000Y46250000D01*
X-112500000Y-71249999D02*
X-111250000Y-72499999D01*
X-112500000Y48750000D02*
X-111250000Y47500000D01*
X5250000Y-42500000D02*
X111250000Y-42499999D01*
X-2750000Y46250000D02*
X-2750000Y43750000D01*
X-112500000Y51250000D02*
X-112500000Y48750000D01*
X-111250000Y52500000D02*
X-112500000Y51250000D01*
X111250000Y-47500000D02*
X5250000Y-47500000D01*
X5250000Y-47500000D02*
X4000000Y-46250000D01*
X4000000Y-46250000D02*
X4000000Y-43750000D01*
X112500000Y-98750000D02*
X111250000Y-97500000D01*
X4000000Y-43750000D02*
X5250000Y-42500000D01*
X-4000000Y52500000D02*
X-111250000Y52500000D01*
X-2750000Y53750000D02*
X-4000000Y52500000D01*
X-2750000Y56250000D02*
X-2750000Y53750000D01*
X-4000000Y57500000D02*
X-2750000Y56250000D01*
X-112500000Y58750000D02*
X-111250000Y57500000D01*
X-112500000Y61250000D02*
X-112500000Y58750000D01*
X-111250000Y57500000D02*
X-4000000Y57500000D01*
X-4000000Y62500000D02*
X-111250000Y62500000D01*
X-2750000Y63750000D02*
X-4000000Y62500000D01*
X-2750000Y66250000D02*
X-2750000Y63750000D01*
X-4000000Y67500000D02*
X-2750000Y66250000D01*
X-111250000Y67500000D02*
X-4000000Y67500000D01*
X-112500000Y68750000D02*
X-111250000Y67500000D01*
X-111250000Y72500000D02*
X-112500000Y71250000D01*
X-112500000Y71250000D02*
X-112500000Y68750000D01*
X-2750000Y73750000D02*
X-4000000Y72500000D01*
X5250000Y-52500000D02*
X111250000Y-52499999D01*
X-2750000Y76250000D02*
X-2750000Y73750000D01*
X-112500000Y-68750000D02*
X-112500000Y-71249999D01*
X-4000000Y77500000D02*
X-2750000Y76250000D01*
X-112500000Y81250000D02*
X-112500000Y78750000D01*
X4000000Y-53750000D02*
X5250000Y-52500000D01*
X4000000Y-56250000D02*
X4000000Y-53750000D01*
X-112500000Y78750000D02*
X-111250000Y77500000D01*
X-111250000Y77500000D02*
X-4000000Y77500000D01*
X-111250000Y87500000D02*
X-4000000Y87500000D01*
X-112500000Y88750000D02*
X-111250000Y87500000D01*
X5250000Y-27500000D02*
X4000000Y-26250000D01*
X4000000Y-26250000D02*
X4000000Y-23750000D01*
X-2750000Y43750000D02*
X-4000000Y42500000D01*
X112500000Y-101249999D02*
X112500000Y-98750000D01*
X-112500000Y91250000D02*
X-112500000Y88750000D01*
X-112500000Y31250000D02*
X-112500000Y28750000D01*
X-2750000Y93750000D02*
X-4000000Y92500000D01*
X-111250000Y32500000D02*
X-112500000Y31250000D01*
X-111250000Y92500000D02*
X-112500000Y91250000D01*
X-2750000Y96250000D02*
X-2750000Y93750000D01*
X-4000000Y-66250000D02*
X-5250000Y-67500000D01*
X-111250000Y62500000D02*
X-112500000Y61250000D01*
X-4000000Y97500000D02*
X-2750000Y96250000D01*
X-4000000Y72500000D02*
X-111250000Y72500000D01*
X112500000Y-48750000D02*
X111250000Y-47500000D01*
X112500000Y-51249999D02*
X112500000Y-48750000D01*
X111250000Y-52499999D02*
X112500000Y-51249999D01*
X-4000000Y102500000D02*
X-111250000Y102500000D01*
X4000000Y3750000D02*
X4000000Y6250000D01*
X-112500000Y21250000D02*
X-112500000Y18750000D01*
X112500000Y-28750000D02*
X111250000Y-27500000D01*
X-4000000Y107500000D02*
X-2750000Y106250000D01*
X-111250000Y97500000D02*
X-4000000Y97500000D01*
X-111250000Y107500000D02*
X-4000000Y107500000D01*
X-4000000Y-96250000D02*
X-5250000Y-97500000D01*
X-112500000Y108750000D02*
X-111250000Y107500000D01*
X-4000000Y-93750000D02*
X-4000000Y-96250000D01*
X-112500000Y111250000D02*
X-112500000Y108750000D01*
X-5250000Y-92500000D02*
X-4000000Y-93750000D01*
X-2750000Y83750000D02*
X-4000000Y82500000D01*
X111250000Y112500000D02*
X-111250000Y112500000D01*
X-111250000Y-92499999D02*
X-5250000Y-92500000D01*
X111250000Y107500000D02*
X112500000Y108750000D01*
X4000000Y107500000D02*
X111250000Y107500000D01*
X2750000Y103750000D02*
X2750000Y106250000D01*
X111250000Y102500000D02*
X4000000Y102500000D01*
X112500000Y98750000D02*
X112500000Y101250000D01*
X112500000Y101250000D02*
X111250000Y102500000D01*
X111250000Y97500000D02*
X112500000Y98750000D01*
X4000000Y97500000D02*
X111250000Y97500000D01*
X2750000Y96250000D02*
X4000000Y97500000D01*
X2750000Y93750000D02*
X2750000Y96250000D01*
X4000000Y92500000D02*
X2750000Y93750000D01*
X111250000Y92500000D02*
X4000000Y92500000D01*
X-5250000Y-17500000D02*
X-111250000Y-17500000D01*
X-111250000Y-67500000D02*
X-112500000Y-68750000D01*
X112500000Y91250000D02*
X111250000Y92500000D01*
X-4000000Y92500000D02*
X-111250000Y92500000D01*
X4000000Y87500000D02*
X111250000Y87500000D01*
X-5250000Y-67500000D02*
X-111250000Y-67500000D01*
X2750000Y86250000D02*
X4000000Y87500000D01*
X-4000000Y-13750000D02*
X-4000000Y-16250000D01*
X2750000Y83750000D02*
X2750000Y86250000D01*
X-5250000Y-12500000D02*
X-4000000Y-13750000D01*
X4000000Y82500000D02*
X2750000Y83750000D01*
X-111250000Y-12499999D02*
X-5250000Y-12500000D01*
X111250000Y82500000D02*
X4000000Y82500000D01*
X112500000Y81250000D02*
X111250000Y82500000D01*
X112500000Y-108750000D02*
X111250000Y-107500000D01*
X112500000Y78750000D02*
X112500000Y81250000D01*
X111250000Y77500000D02*
X112500000Y78750000D01*
X4000000Y77500000D02*
X111250000Y77500000D01*
X2750000Y76250000D02*
X4000000Y77500000D01*
X2750000Y73750000D02*
X2750000Y76250000D01*
X4000000Y72500000D02*
X2750000Y73750000D01*
X-111250000Y-7500000D02*
X-112500000Y-8750000D01*
X111250000Y72500000D02*
X4000000Y72500000D01*
X2750000Y66250000D02*
X4000000Y67500000D01*
X2750000Y63750000D02*
X2750000Y66250000D01*
X111250000Y62500000D02*
X4000000Y62500000D01*
X4000000Y62500000D02*
X2750000Y63750000D01*
X4000000Y102500000D02*
X2750000Y103750000D01*
X112500000Y61250000D02*
X111250000Y62500000D01*
X-4000000Y-6250000D02*
X-5250000Y-7500000D01*
X111250000Y57500000D02*
X112500000Y58750000D01*
X4000000Y57500000D02*
X111250000Y57500000D01*
X111250000Y-67500000D02*
X5250000Y-67500000D01*
X2750000Y56250000D02*
X4000000Y57500000D01*
X2750000Y53750000D02*
X2750000Y56250000D01*
X5250000Y-77500000D02*
X4000000Y-76250000D01*
X111250000Y87500000D02*
X112500000Y88750000D01*
X112500000Y51250000D02*
X111250000Y52500000D01*
X112500000Y48750000D02*
X112500000Y51250000D01*
X2750000Y46250000D02*
X4000000Y47500000D01*
X4000000Y47500000D02*
X111250000Y47500000D01*
X-111250000Y112500000D02*
X-112500000Y111250000D01*
X4000000Y42500000D02*
X2750000Y43750000D01*
X111250000Y42500000D02*
X4000000Y42500000D01*
X-5250000Y-82500000D02*
X-4000000Y-83750000D01*
X111250000Y-7500000D02*
X5250000Y-7500000D01*
X-4000000Y17500000D02*
X-2750000Y16250000D01*
X112500000Y18750000D02*
X112500000Y21250000D01*
X112500000Y21250000D02*
X111250000Y22500000D01*
X7600000Y-114900000D02*
X10000001Y-112499999D01*
X112500000Y-1249999D02*
X112500000Y1250000D01*
X111250000Y-2499999D02*
X112500000Y-1249999D01*
X112500000Y1250000D02*
X111250000Y2500000D01*
X-2750000Y86250000D02*
X-2750000Y83750000D01*
X5250000Y-72500000D02*
X111250000Y-72499999D01*
X-4000000Y87500000D02*
X-2750000Y86250000D01*
X112500000Y-58750000D02*
X111250000Y-57500000D01*
X4000000Y12500000D02*
X2750000Y13750000D01*
X112500000Y-61249999D02*
X112500000Y-58750000D01*
X-111250000Y-87500000D02*
X-112500000Y-88750000D01*
X-2750000Y106250000D02*
X-2750000Y103750000D01*
X5250001Y-62499999D02*
X111250000Y-62499999D01*
X4000000Y-63750000D02*
X5250001Y-62499999D01*
X111250000Y-112499999D02*
X112500000Y-111249999D01*
X5250000Y-57500000D02*
X4000000Y-56250000D01*
X4000000Y-66250000D02*
X4000000Y-63750000D01*
X-111250000Y-97500000D02*
X-112500000Y-98750000D01*
X4000000Y-86250000D02*
X4000000Y-83750000D01*
X112500000Y-68750000D02*
X111250000Y-67500000D01*
X111250000Y-72499999D02*
X112500000Y-71249999D01*
X112500000Y71250000D02*
X111250000Y72500000D01*
X112500000Y68750000D02*
X112500000Y71250000D01*
X-5250000Y-87500000D02*
X-111250000Y-87500000D01*
X111250000Y7500000D02*
X112500000Y8750000D01*
X5250000Y7500000D02*
X111250000Y7500000D01*
X4000000Y-73750000D02*
X5250000Y-72500000D01*
X111250000Y-97500000D02*
X5250000Y-97500000D01*
X4000000Y-76250000D02*
X4000000Y-73750000D01*
X-111250000Y82500000D02*
X-112500000Y81250000D01*
X-112500000Y-51249999D02*
X-111250000Y-52499999D01*
X-4000000Y82500000D02*
X-111250000Y82500000D01*
X4000000Y-106250000D02*
X4000000Y-103750000D01*
X111250000Y27500000D02*
X112500000Y28750000D01*
X112500000Y111250000D02*
X111250000Y112500000D01*
X111250000Y-62499999D02*
X112500000Y-61249999D01*
X112500000Y108750000D02*
X112500000Y111250000D01*
X4000000Y37500000D02*
X111250000Y37500000D01*
X4000000Y67500000D02*
X111250000Y67500000D01*
X-5250000Y-7500000D02*
X-111250000Y-7500000D01*
X111250000Y-82499999D02*
X112500000Y-81249999D01*
X112500000Y-81249999D02*
X112500000Y-78750000D01*
X-111250000Y102500000D02*
X-112500000Y101250000D01*
X5250000Y-92500000D02*
X111250000Y-92499999D01*
X112500000Y58750000D02*
X112500000Y61250000D01*
X112500000Y-71249999D02*
X112500000Y-68750000D01*
X111250000Y-77500000D02*
X5250000Y-77500000D01*
X5250000Y-87500000D02*
X4000000Y-86250000D01*
X111250000Y-57500000D02*
X5250000Y-57500000D01*
X-112500000Y-8750000D02*
X-112500000Y-11249999D01*
X111250000Y-107500000D02*
X5250000Y-107500000D01*
X2750000Y36250000D02*
X4000000Y37500000D01*
X2750000Y106250000D02*
X4000000Y107500000D01*
X112500000Y-111249999D02*
X112500000Y-108750000D01*
X112500000Y-91249999D02*
X112500000Y-88750000D01*
X112500000Y-88750000D02*
X111250000Y-87500000D01*
X111250000Y67500000D02*
X112500000Y68750000D01*
X-4000000Y32500000D02*
X-111250000Y32500000D01*
X4000000Y-36250000D02*
X4000000Y-33750000D01*
X112500000Y88750000D02*
X112500000Y91250000D01*
X111250000Y-92499999D02*
X112500000Y-91249999D01*
X4000000Y27500000D02*
X111250000Y27500000D01*
X2750000Y26250000D02*
X4000000Y27500000D01*
X4000000Y52500000D02*
X2750000Y53750000D01*
X10000001Y-112499999D02*
X111250000Y-112499999D01*
X-1Y-112499999D02*
X2600000Y-115100000D01*
X4000000Y-96250000D02*
X4000000Y-93750000D01*
X112500000Y41250000D02*
X111250000Y42500000D01*
X-111250000Y-82499999D02*
X-5250000Y-82500000D01*
X111250000Y37500000D02*
X112500000Y38750000D01*
X112500000Y38750000D02*
X112500000Y41250000D01*
X-2750000Y103750000D02*
X-4000000Y102500000D01*
X111250000Y2500000D02*
X5250000Y2500000D01*
X5250000Y-107500000D02*
X4000000Y-106250000D01*
X4000000Y6250000D02*
X5250000Y7500000D01*
X-2750000Y13750000D02*
X-4000000Y12500000D01*
X111250000Y-87500000D02*
X5250000Y-87500000D01*
X2750000Y43750000D02*
X2750000Y46250000D01*
X111250000Y52500000D02*
X4000000Y52500000D01*
X-4000000Y-3750000D02*
X-4000000Y-6250000D01*
X4000000Y-83750000D02*
X5250000Y-82500000D01*
X112500000Y8750000D02*
X112500000Y11250000D01*
X5250000Y-67500000D02*
X4000000Y-66250000D01*
X2750000Y23750000D02*
X2750000Y26250000D01*
X4000000Y22500000D02*
X2750000Y23750000D01*
X112500000Y-78750000D02*
X111250000Y-77500000D01*
X111250000Y47500000D02*
X112500000Y48750000D01*
X-5250000Y-2500000D02*
X-4000000Y-3750000D01*
X5250000Y-82500000D02*
X111250000Y-82499999D01*
X4000000Y-33750000D02*
X5250000Y-32500000D01*
X5250000Y-32500000D02*
X111250000Y-32499999D01*
X-111250000Y22500000D02*
X-112500000Y21250000D01*
X-112500000Y98750000D02*
X-111250000Y97500000D01*
X-112500000Y-38750000D02*
X-112500000Y-41249999D01*
X112500000Y-31249999D02*
X112500000Y-28750000D01*
X111250000Y-32499999D02*
X112500000Y-31249999D01*
X111250000Y-27500000D02*
X5250000Y-27500000D01*
X4000000Y-103750000D02*
X5250000Y-102500000D01*
X-111250000Y7500000D02*
X-5250000Y7500000D01*
X111250000Y17500000D02*
X112500000Y18750000D01*
X4000000Y17500000D02*
X111250000Y17500000D01*
X112500000Y-18750000D02*
X111250000Y-17500000D01*
X4000000Y-23750000D02*
X5250000Y-22500000D01*
X111250000Y32500000D02*
X4000000Y32500000D01*
X-112500000Y-81249999D02*
X-111250000Y-82499999D01*
X111250000Y-22499999D02*
X112500000Y-21249999D01*
X5250000Y-22500000D02*
X111250000Y-22499999D01*
X112500000Y-21249999D02*
X112500000Y-18750000D01*
X-112500000Y101250000D02*
X-112500000Y98750000D01*
X111250000Y-17500000D02*
X5250000Y-17500000D01*
X-111250000Y-72499999D02*
X-5250000Y-72500000D01*
X-5250000Y-72500000D02*
X-4000000Y-73750000D01*
X5250000Y-17500000D02*
X4000000Y-16250000D01*
X4000000Y-16250000D02*
X4000000Y-13750000D01*
X112500000Y-11249999D02*
X112500000Y-8750000D01*
X111250000Y-12499999D02*
X112500000Y-11249999D01*
X5250000Y-12500000D02*
X111250000Y-12499999D01*
X4000000Y-13750000D02*
X5250000Y-12500000D01*
X112500000Y-8750000D02*
X111250000Y-7500000D01*
X5250000Y-7500000D02*
X4000000Y-6250000D01*
X4000000Y-6250000D02*
X4000000Y-3750000D01*
X4000000Y-3750000D02*
X5250000Y-2500000D01*
X5250000Y-2500000D02*
X111250000Y-2499999D01*
X-4000000Y-76250000D02*
X-5250000Y-77500000D01*
X5250000Y2500000D02*
X4000000Y3750000D01*
X112500000Y11250000D02*
X111250000Y12500000D01*
X111250000Y12500000D02*
X4000000Y12500000D01*
X-111250000Y12500000D02*
X-112500000Y11250000D01*
X2750000Y13750000D02*
X2750000Y16250000D01*
X2750000Y16250000D02*
X4000000Y17500000D01*
X-5250000Y-77500000D02*
X-111250000Y-77500000D01*
X111250000Y22500000D02*
X4000000Y22500000D01*
X2750000Y33750000D02*
X2750000Y36250000D01*
X4000000Y32500000D02*
X2750000Y33750000D01*
X112500000Y31250000D02*
X111250000Y32500000D01*
X5250000Y-97500000D02*
X4000000Y-96250000D01*
X112500000Y28750000D02*
X112500000Y31250000D01*
X4000000Y-93750000D02*
X5250000Y-92500000D01*
X-112500000Y18750000D02*
X-111250000Y17500000D01*
X-111250000Y17500000D02*
X-4000000Y17500000D01*
X-2750000Y16250000D02*
X-2750000Y13750000D01*
X-4000000Y-73750000D02*
X-4000000Y-76250000D01*
X-4000000Y12500000D02*
X-111250000Y12500000D01*
X-112500000Y11250000D02*
X-112500000Y8750000D01*
X-112500000Y8750000D02*
X-111250000Y7500000D01*
X-111250000Y-77500000D02*
X-112500000Y-78750000D01*
X-5250000Y7500000D02*
X-4000000Y6250000D01*
X-4000000Y6250000D02*
X-4000000Y3750000D01*
X-4000000Y3750000D02*
X-5250000Y2500000D01*
X-112500000Y-78750000D02*
X-112500000Y-81249999D01*
X-5250000Y2500000D02*
X-111250000Y2500000D01*
X-111250000Y2500000D02*
X-112500000Y1250000D01*
X-112500000Y1250000D02*
X-112500000Y-1249999D01*
X-112500000Y-1249999D02*
X-111250000Y-2499999D01*
X-111250000Y-2499999D02*
X-5250000Y-2500000D01*
X-112500000Y-11249999D02*
X-111250000Y-12499999D01*
X-4000000Y-16250000D02*
X-5250000Y-17500000D01*
X-112500000Y-91249999D02*
X-111250000Y-92499999D01*
X-111250000Y-17500000D02*
X-112500000Y-18750000D01*
X-112500000Y-18750000D02*
X-112500000Y-21249999D01*
X-112500000Y-21249999D02*
X-111250000Y-22499999D01*
X-111250000Y-22499999D02*
X-5250000Y-22500000D01*
X-5250000Y-22500000D02*
X-4000000Y-23750000D01*
X-5250000Y-97500000D02*
X-111250000Y-97500000D01*
X-4000000Y-23750000D02*
X-4000000Y-26250000D01*
X-4000000Y-26250000D02*
X-5250000Y-27500000D01*
X-5250000Y-27500000D02*
X-111250000Y-27500000D01*
X-111250000Y-27500000D02*
X-112500000Y-28750000D01*
X-112500000Y-28750000D02*
X-112500000Y-31249999D01*
X-112500000Y-31249999D02*
X-111250000Y-32499999D01*
X-111250000Y-32499999D02*
X-5250000Y-32500000D01*
X-5250000Y-32500000D02*
X-4000000Y-33750000D01*
X-112500000Y-98750000D02*
X-112500000Y-101249999D01*
X-4000000Y-33750000D02*
X-4000000Y-36250000D01*
X-4000000Y-36250000D02*
X-5250000Y-37500000D01*
X-5250000Y-37500000D02*
X-111250000Y-37500000D01*
X-111250000Y-37500000D02*
X-112500000Y-38750000D01*
X-112500000Y-41249999D02*
X-111250000Y-42499999D01*
X-111250000Y-42499999D02*
X-5250000Y-42500000D01*
X-5250000Y-42500000D02*
X-4000000Y-43750000D01*
X-4000000Y-43750000D02*
X-4000000Y-46250000D01*
X-4000000Y-46250000D02*
X-5250000Y-47500000D01*
X-112500000Y-101249999D02*
X-111250000Y-102499999D01*
X-5250000Y-47500000D02*
X-111250000Y-47500000D01*
X-111250000Y-47500000D02*
X-112500000Y-48750000D01*
X-111250000Y-102499999D02*
X-5250000Y-102500000D01*
X-112500000Y-48750000D02*
X-112500000Y-51249999D01*
X-111250000Y-52499999D02*
X-5250000Y-52500000D01*
X-5250000Y-52500000D02*
X-4000000Y-53750000D01*
X-4000000Y-53750000D02*
X-4000000Y-56250000D01*
X-5250000Y-102500000D02*
X-4000000Y-103750000D01*
X-4000000Y-56250000D02*
X-5250000Y-57500000D01*
X-5250000Y-57500000D02*
X-111250000Y-57500000D01*
X-111250000Y-57500000D02*
X-112500000Y-58750000D01*
X-112500000Y-58750000D02*
X-112500000Y-61249999D01*
X-112500000Y-61249999D02*
X-111250000Y-62499999D01*
X-111250000Y-62499999D02*
X-5250001Y-62499999D01*
X-5250001Y-62499999D02*
X-4000000Y-63750000D01*
X-4000000Y-63750000D02*
X-4000000Y-66250000D01*
X-4000000Y-83750000D02*
X-4000000Y-86250000D01*
X-4000000Y-86250000D02*
X-5250000Y-87500000D01*
X-112500000Y-88750000D02*
X-112500000Y-91249999D01*
X-4000000Y-103750000D02*
X-4000000Y-106250000D01*
X-4000000Y-106250000D02*
X-5250000Y-107500000D01*
X-5250000Y-107500000D02*
X-111250000Y-107500000D01*
X-111250000Y-107500000D02*
X-112500000Y-108750000D01*
X-112500000Y-108750000D02*
X-112500000Y-111249999D01*
X-112500000Y-111249999D02*
X-111250000Y-112499999D01*
X-111250000Y-112499999D02*
X-1Y-112499999D01*
M02*
