G04 #@! TF.GenerationSoftware,KiCad,Pcbnew,5.99.0-unknown-5975524826~131~ubuntu21.04.1*
G04 #@! TF.CreationDate,2021-09-24T15:40:40+02:00*
G04 #@! TF.ProjectId,e3pb,65337062-2e6b-4696-9361-645f70636258,rev?*
G04 #@! TF.SameCoordinates,Original*
G04 #@! TF.FileFunction,Legend,Bot*
G04 #@! TF.FilePolarity,Positive*
%FSLAX46Y46*%
G04 Gerber Fmt 4.6, Leading zero omitted, Abs format (unit mm)*
G04 Created by KiCad (PCBNEW 5.99.0-unknown-5975524826~131~ubuntu21.04.1) date 2021-09-24 15:40:40*
%MOMM*%
%LPD*%
G01*
G04 APERTURE LIST*
G04 Aperture macros list*
%AMRoundRect*
0 Rectangle with rounded corners*
0 $1 Rounding radius*
0 $2 $3 $4 $5 $6 $7 $8 $9 X,Y pos of 4 corners*
0 Add a 4 corners polygon primitive as box body*
4,1,4,$2,$3,$4,$5,$6,$7,$8,$9,$2,$3,0*
0 Add four circle primitives for the rounded corners*
1,1,$1+$1,$2,$3*
1,1,$1+$1,$4,$5*
1,1,$1+$1,$6,$7*
1,1,$1+$1,$8,$9*
0 Add four rect primitives between the rounded corners*
20,1,$1+$1,$2,$3,$4,$5,0*
20,1,$1+$1,$4,$5,$6,$7,0*
20,1,$1+$1,$6,$7,$8,$9,0*
20,1,$1+$1,$8,$9,$2,$3,0*%
G04 Aperture macros list end*
%ADD10C,0.150000*%
%ADD11C,0.120000*%
%ADD12RoundRect,0.237500X0.250000X0.237500X-0.250000X0.237500X-0.250000X-0.237500X0.250000X-0.237500X0*%
%ADD13RoundRect,0.237500X-0.287500X-0.237500X0.287500X-0.237500X0.287500X0.237500X-0.287500X0.237500X0*%
%ADD14RoundRect,0.250000X-0.600000X-0.750000X0.600000X-0.750000X0.600000X0.750000X-0.600000X0.750000X0*%
%ADD15O,1.700000X2.000000*%
%ADD16C,1.400000*%
%ADD17R,3.500000X3.500000*%
%ADD18C,3.500000*%
G04 APERTURE END LIST*
D10*
X7695238Y-129502380D02*
X7695238Y-128502380D01*
X7695238Y-128978571D02*
X7123809Y-128978571D01*
X7123809Y-129502380D02*
X7123809Y-128502380D01*
X6266666Y-129454761D02*
X6361904Y-129502380D01*
X6552380Y-129502380D01*
X6647619Y-129454761D01*
X6695238Y-129359523D01*
X6695238Y-128978571D01*
X6647619Y-128883333D01*
X6552380Y-128835714D01*
X6361904Y-128835714D01*
X6266666Y-128883333D01*
X6219047Y-128978571D01*
X6219047Y-129073809D01*
X6695238Y-129169047D01*
X5361904Y-129502380D02*
X5361904Y-128978571D01*
X5409523Y-128883333D01*
X5504761Y-128835714D01*
X5695238Y-128835714D01*
X5790476Y-128883333D01*
X5361904Y-129454761D02*
X5457142Y-129502380D01*
X5695238Y-129502380D01*
X5790476Y-129454761D01*
X5838095Y-129359523D01*
X5838095Y-129264285D01*
X5790476Y-129169047D01*
X5695238Y-129121428D01*
X5457142Y-129121428D01*
X5361904Y-129073809D01*
X5028571Y-128835714D02*
X4647619Y-128835714D01*
X4885714Y-128502380D02*
X4885714Y-129359523D01*
X4838095Y-129454761D01*
X4742857Y-129502380D01*
X4647619Y-129502380D01*
X4314285Y-129502380D02*
X4314285Y-128835714D01*
X4314285Y-128502380D02*
X4361904Y-128550000D01*
X4314285Y-128597619D01*
X4266666Y-128550000D01*
X4314285Y-128502380D01*
X4314285Y-128597619D01*
X3838095Y-128835714D02*
X3838095Y-129502380D01*
X3838095Y-128930952D02*
X3790476Y-128883333D01*
X3695238Y-128835714D01*
X3552380Y-128835714D01*
X3457142Y-128883333D01*
X3409523Y-128978571D01*
X3409523Y-129502380D01*
X2504761Y-128835714D02*
X2504761Y-129645238D01*
X2552380Y-129740476D01*
X2600000Y-129788095D01*
X2695238Y-129835714D01*
X2838095Y-129835714D01*
X2933333Y-129788095D01*
X2504761Y-129454761D02*
X2600000Y-129502380D01*
X2790476Y-129502380D01*
X2885714Y-129454761D01*
X2933333Y-129407142D01*
X2980952Y-129311904D01*
X2980952Y-129026190D01*
X2933333Y-128930952D01*
X2885714Y-128883333D01*
X2790476Y-128835714D01*
X2600000Y-128835714D01*
X2504761Y-128883333D01*
D11*
X5354724Y-125027500D02*
X4845276Y-125027500D01*
X5354724Y-126072500D02*
X4845276Y-126072500D01*
X5877500Y-128185000D02*
X3417500Y-128185000D01*
X3417500Y-128185000D02*
X3417500Y-126715000D01*
X3417500Y-126715000D02*
X5877500Y-126715000D01*
%LPC*%
D10*
X-112500000Y112500000D02*
X112500000Y112500000D01*
X112500000Y112500000D02*
X112500000Y-112500000D01*
X112500000Y-112500000D02*
X-112500000Y-112500000D01*
X-112500000Y-112500000D02*
X-112500000Y112500000D01*
G36*
X-112500000Y112500000D02*
G01*
X112500000Y112500000D01*
X112500000Y-112500000D01*
X-112500000Y-112500000D01*
X-112500000Y112500000D01*
G37*
D12*
X6012500Y-125550000D03*
X4187500Y-125550000D03*
D13*
X4202500Y-127450000D03*
X5952500Y-127450000D03*
D14*
X-7550000Y-123950000D03*
D15*
X-5050000Y-123950000D03*
D16*
X10600000Y-130050000D03*
X-400000Y-130050000D03*
D17*
X2600000Y-120050000D03*
D18*
X7600000Y-120050000D03*
M02*
